<?xml version="1.0" encoding="UTF-8" standalone="no"?>
<!-- Created with Inkscape (http://www.inkscape.org/) -->

<svg
   version="1.1"
   id="svg1"
   viewBox="1733 1700 3400 2200"
   sodipodi:docname="shutterstock_2102504011.eps"
   xmlns:inkscape="http://www.inkscape.org/namespaces/inkscape"
   xmlns:sodipodi="http://sodipodi.sourceforge.net/DTD/sodipodi-0.dtd"
   xmlns="http://www.w3.org/2000/svg"
   xmlns:svg="http://www.w3.org/2000/svg">
  <defs
     id="defs1" />
  <sodipodi:namedview
     id="namedview1"
     pagecolor="#ffffff"
     bordercolor="#000000"
     borderopacity="0.25"
     inkscape:showpageshadow="2"
     inkscape:pageopacity="0.0"
     inkscape:pagecheckerboard="0"
     inkscape:deskcolor="#d1d1d1">
    <inkscape:page
       x="0"
       y="0"
       inkscape:label="1"
       id="page1"
       width="6933.3335"
       height="5333.3335"
       margin="0"
       bleed="0" />
  </sodipodi:namedview>
  <g
     id="g1"
     inkscape:groupmode="layer"
     inkscape:label="1">
    <g
       id="group-R5">
      <path
         id="path2"
         d="M 52000,0 H 0 V 40000 H 52000 V 0"
         style="fill:#ffffff;fill-opacity:1;fill-rule:nonzero;stroke:none"
         transform="matrix(0.13333333,0,0,-0.13333333,0,5333.3333)" />
      <path
         id="path3"
         d="m 22026.1,24341.8 -593.4,97.1 -444.3,-405.3 c 790.8,-2662.8 -232.6,-3969.5 -232.6,-3969.5 l 1816,539.4 1816,539.3 c 0,0 -1570.8,536.2 -2361.7,3199"
         style="fill:#ef9300;fill-opacity:1;fill-rule:nonzero;stroke:none"
         transform="matrix(0.13333333,0,0,-0.13333333,0,5333.3333)" />
      <path
         id="path4"
         d="m 22571.8,24979.4 c 0,753.3 -610.7,1364 -1364,1364 -753.3,0 -1363.9,-610.7 -1363.9,-1364 0,-753.3 610.6,-1363.9 1363.9,-1363.9 753.3,0 1364,610.6 1364,1363.9"
         style="fill:#ef9300;fill-opacity:1;fill-rule:nonzero;stroke:none"
         transform="matrix(0.13333333,0,0,-0.13333333,0,5333.3333)" />
      <path
         id="path5"
         d="m 30004.2,24341.8 593.5,97.1 444.3,-405.3 c -790.9,-2662.8 232.5,-3969.5 232.5,-3969.5 l -1816,539.4 -1816,539.3 c 0,0 1570.8,536.2 2361.7,3199"
         style="fill:#ef9300;fill-opacity:1;fill-rule:nonzero;stroke:none"
         transform="matrix(0.13333333,0,0,-0.13333333,0,5333.3333)" />
      <path
         id="path6"
         d="m 29458.5,24979.4 c 0,753.3 610.7,1364 1364,1364 753.3,0 1363.9,-610.7 1363.9,-1364 0,-753.3 -610.6,-1363.9 -1363.9,-1363.9 -753.3,0 -1364,610.6 -1364,1363.9"
         style="fill:#ef9300;fill-opacity:1;fill-rule:nonzero;stroke:none"
         transform="matrix(0.13333333,0,0,-0.13333333,0,5333.3333)" />
      <path
         id="path7"
         d="m 33800.4,23130.6 c -650.5,-1721.3 -2368,-2788 -4118.1,-2447.4 -1939.3,377.5 -3193.4,2341.8 -2841.4,4415.7 l -825.7,233.6 -825.8,-233.6 c 352,-2073.9 -902.1,-4038.2 -2841.4,-4415.7 -1750.1,-340.6 -3467.6,726.1 -4118.1,2447.4 l -1217,-344.2 1469.1,-3179 c 829.4,-1794.5 1258.9,-3747.8 1258.9,-5724.7 v 0 h 6274.3 6274.2 v 0 c 0,1976.9 429.6,3930.2 1258.9,5724.7 l 1469.1,3179 -1217,344.2"
         style="fill:#ffbc00;fill-opacity:1;fill-rule:nonzero;stroke:none"
         transform="matrix(0.13333333,0,0,-0.13333333,0,5333.3333)" />
      <path
         id="path8"
         d="m 35896.4,23615.5 c 0,753.2 -610.7,1363.9 -1364,1363.9 -753.3,0 -1364,-610.7 -1364,-1363.9 0,-753.4 610.7,-1364 1364,-1364 753.3,0 1364,610.6 1364,1364"
         style="fill:#ffbc00;fill-opacity:1;fill-rule:nonzero;stroke:none"
         transform="matrix(0.13333333,0,0,-0.13333333,0,5333.3333)" />
      <path
         id="path9"
         d="m 21533.4,14895.1 c 1199.5,200.6 2791.1,311.1 4481.8,311.1 v 9699.1 l -372.7,-105.5 c 195.7,-2174 -1161.2,-4120.1 -3215.9,-4520.1 -241.4,-47.1 -487.8,-70.9 -732.4,-70.9 -1554.6,0 -2998.8,961.5 -3699.9,2427.9 l -406.1,-114.8 1267.1,-2742 c 755.5,-1634.9 1192.8,-3431.5 1279.7,-5233.5 308.4,122.2 754.4,241 1398.4,348.7"
         style="fill:#ffdd00;fill-opacity:1;fill-rule:nonzero;stroke:none"
         transform="matrix(0.13333333,0,0,-0.13333333,0,5333.3333)" />
      <path
         id="path10"
         d="m 32289.4,13882.7 c 0,-579.6 -2809.1,-1049.5 -6274.2,-1049.5 -3465.2,0 -6274.3,469.9 -6274.3,1049.5 0,579.6 2809.1,1049.5 6274.3,1049.5 3465.1,0 6274.2,-469.9 6274.2,-1049.5"
         style="fill:#c06f00;fill-opacity:1;fill-rule:nonzero;stroke:none"
         transform="matrix(0.13333333,0,0,-0.13333333,0,5333.3333)" />
      <path
         id="path11"
         d="m 20208.8,13484.9 c 937.2,-382.4 3183.1,-651.7 5806.4,-651.7 2623.2,0 4869.2,269.3 5806.3,651.7 -937.1,382.3 -3183.1,651.6 -5806.3,651.6 -2623.3,0 -4869.2,-269.3 -5806.4,-651.6"
         style="fill:#ef9300;fill-opacity:1;fill-rule:nonzero;stroke:none"
         transform="matrix(0.13333333,0,0,-0.13333333,0,5333.3333)" />
      <path
         id="path12"
         d="m 27379.1,25802.8 c 0,753.3 -610.6,1364 -1363.9,1364 -753.3,0 -1364,-610.7 -1364,-1364 0,-753.3 610.7,-1363.9 1364,-1363.9 753.3,0 1363.9,610.6 1363.9,1363.9"
         style="fill:#ffbc00;fill-opacity:1;fill-rule:nonzero;stroke:none"
         transform="matrix(0.13333333,0,0,-0.13333333,0,5333.3333)" />
      <path
         id="path13"
         d="m 18831.6,23585.1 c 0,753.3 -610.7,1364 -1364,1364 -753.3,0 -1364,-610.7 -1364,-1364 0,-753.3 610.7,-1363.9 1364,-1363.9 753.3,0 1364,610.6 1364,1363.9"
         style="fill:#ffbc00;fill-opacity:1;fill-rule:nonzero;stroke:none"
         transform="matrix(0.13333333,0,0,-0.13333333,0,5333.3333)" />
      <path
         id="path14"
         d="m 17897.2,23880.7 c 0,413 -334.8,747.8 -747.8,747.8 -413.1,0 -747.9,-334.8 -747.9,-747.8 0,-413.1 334.8,-747.9 747.9,-747.9 413,0 747.8,334.8 747.8,747.9"
         style="fill:#ffdd00;fill-opacity:1;fill-rule:nonzero;stroke:none"
         transform="matrix(0.13333333,0,0,-0.13333333,0,5333.3333)" />
      <path
         id="path15"
         d="m 26482,26179.5 c 0,413 -334.8,747.9 -747.8,747.9 -413.1,0 -747.9,-334.9 -747.9,-747.9 0,-413 334.8,-747.9 747.9,-747.9 413,0 747.8,334.9 747.8,747.9"
         style="fill:#ffdd00;fill-opacity:1;fill-rule:nonzero;stroke:none"
         transform="matrix(0.13333333,0,0,-0.13333333,0,5333.3333)" />
      <path
         id="path16"
         d="m 35120.5,23974.4 c 0,413 -334.8,747.9 -747.9,747.9 -413,0 -747.8,-334.9 -747.8,-747.9 0,-413 334.8,-747.9 747.8,-747.9 413.1,0 747.9,334.9 747.9,747.9"
         style="fill:#ffdd00;fill-opacity:1;fill-rule:nonzero;stroke:none"
         transform="matrix(0.13333333,0,0,-0.13333333,0,5333.3333)" />
    </g>
  </g>
</svg>
