<svg width="430" height="429" viewBox="0 0 430 429" fill="none" xmlns="http://www.w3.org/2000/svg">
<path d="M329.845 132.58C321.368 124.106 307.627 124.106 299.143 132.58L181.292 250.388L130.037 199.155C121.56 190.681 107.813 190.681 99.3354 199.155C90.8582 207.629 90.8582 221.37 99.3354 229.843L165.938 296.418C170.177 300.654 175.734 302.775 181.292 302.775C186.844 302.775 192.401 300.654 196.64 296.418L211.994 281.077L329.845 163.269C338.322 154.795 338.322 141.054 329.845 132.58Z" fill="#41B93C"/>
<path d="M214.59 31.497C113.639 31.497 31.5096 113.592 31.5096 214.5C31.5096 315.408 113.639 397.503 214.59 397.503C315.541 397.503 397.67 315.408 397.67 214.5C397.67 113.592 315.541 31.497 214.59 31.497ZM214.59 429C185.628 429 157.523 423.327 131.057 412.137C105.502 401.333 82.5543 385.869 62.8517 366.175C43.1493 346.481 27.679 323.542 16.8699 297.998C5.6758 271.543 0 243.45 0 214.5C0 185.55 5.6758 157.457 16.8699 131.002C27.679 105.458 43.1493 82.519 62.8517 62.8251C82.5543 43.1312 105.502 27.6672 131.057 16.8633C157.523 5.67336 185.628 -1.85519e-05 214.59 -1.85519e-05C243.552 -1.85519e-05 271.657 5.67336 298.123 16.8633C323.678 27.6672 346.624 43.1312 366.329 62.8251C386.031 82.519 401.501 105.458 412.31 131.002C423.504 157.457 429.18 185.55 429.18 214.5C429.18 243.45 423.504 271.543 412.31 297.998C401.501 323.542 386.031 346.481 366.329 366.175C346.624 385.869 323.678 401.333 298.123 412.137C271.657 423.327 243.552 429 214.59 429Z" fill="#41B93C"/>
</svg>
