<svg width="430" height="429" viewBox="0 0 430 429" fill="none" xmlns="http://www.w3.org/2000/svg">
<path d="M246.109 214.5L297.364 163.269C305.841 154.795 305.841 141.054 297.364 132.58C288.884 124.106 275.14 124.106 266.662 132.58L215.41 183.811L164.155 132.58C155.678 124.106 141.933 124.106 133.455 132.58C124.976 141.054 124.976 154.795 133.455 163.269L184.708 214.5L133.455 265.731C124.976 274.207 124.976 287.946 133.455 296.42C137.695 300.658 143.248 302.775 148.805 302.775C154.36 302.775 159.917 300.656 164.155 296.42L215.41 245.189L266.662 296.42C270.902 300.658 276.457 302.775 282.012 302.775C287.567 302.775 293.124 300.658 297.364 296.42C305.841 287.946 305.841 274.207 297.364 265.731L246.109 214.5Z" fill="#EC1D27"/>
<path d="M215.41 31.497C114.46 31.497 32.3285 113.592 32.3285 214.5C32.3285 315.408 114.46 397.503 215.41 397.503C316.361 397.503 398.49 315.408 398.49 214.5C398.49 113.592 316.361 31.497 215.41 31.497ZM215.41 429C186.448 429 158.343 423.327 131.877 412.137C106.322 401.333 83.374 385.869 63.6718 366.175C43.9696 346.481 28.4991 323.542 17.6906 297.998C6.49603 271.543 0.820312 243.45 0.820312 214.5C0.820312 185.55 6.49603 157.457 17.6906 131.002C28.4991 105.458 43.9696 82.519 63.6718 62.8251C83.374 43.1312 106.322 27.6672 131.877 16.8633C158.343 5.67336 186.448 -1.85519e-05 215.41 -1.85519e-05C244.372 -1.85519e-05 272.478 5.67336 298.944 16.8633C324.498 27.6672 347.445 43.1312 367.147 62.8251C386.849 82.519 402.322 105.458 413.13 131.002C424.323 157.457 429.999 185.55 429.999 214.5C429.999 243.45 424.323 271.543 413.13 297.998C402.322 323.542 386.849 346.481 367.147 366.175C347.445 385.869 324.498 401.333 298.944 412.137C272.478 423.327 244.372 429 215.41 429Z" fill="#EC1D27"/>
</svg>
